<svg xmlns="http://www.w3.org/2000/svg" xmlns:xlink="http://www.w3.org/1999/xlink" width="700" zoomAndPan="magnify" viewBox="0 0 525 525.000007" height="700" preserveAspectRatio="xMidYMid meet" version="1.0"><defs><clipPath id="f04fe2989a"><path d="M 274.542969 378.644531 L 358.429688 378.644531 L 358.429688 523.867188 L 274.542969 523.867188 Z M 274.542969 378.644531 " clip-rule="nonzero"/></clipPath><clipPath id="a849580e17"><path d="M 171.617188 379 L 255.5 379 L 255.5 523.867188 L 171.617188 523.867188 Z M 171.617188 379 " clip-rule="nonzero"/></clipPath><clipPath id="b5a359ac18"><path d="M 0.5 220 L 85 220 L 85 366 L 0.5 366 Z M 0.5 220 " clip-rule="nonzero"/></clipPath><clipPath id="e95b192f4e"><path d="M 440.769531 220.648438 L 524.5 220.648438 L 524.5 365.777344 L 440.769531 365.777344 Z M 440.769531 220.648438 " clip-rule="nonzero"/></clipPath></defs><path fill="#e6e7e8" d="M 348.402344 48.300781 L 264.96875 0.128906 L 181.304688 48.433594 L 264.734375 96.605469 L 348.402344 48.300781 " fill-opacity="1" fill-rule="nonzero"/><path fill="#e6e7e8" d="M 431.1875 155.828125 L 399.25 174.269531 L 358.285156 150.617188 L 358.285156 64.988281 L 274.664062 113.265625 L 274.664062 210.03125 L 348.539062 167.382812 L 379.859375 185.464844 L 347.519531 204.132812 L 430.953125 252.304688 L 514.621094 204 L 431.1875 155.828125 " fill-opacity="1" fill-rule="nonzero"/><g clip-path="url(#f04fe2989a)"><path fill="#e6e7e8" d="M 274.667969 523.867188 L 358.285156 475.589844 L 358.285156 378.824219 L 274.667969 427.101562 L 274.667969 523.867188 " fill-opacity="1" fill-rule="nonzero"/></g><g clip-path="url(#a849580e17)"><path fill="#e6e7e8" d="M 171.65625 475.589844 L 255.273438 523.867188 L 255.273438 427.367188 L 171.65625 379.09375 L 171.65625 475.589844 " fill-opacity="1" fill-rule="nonzero"/></g><path fill="#e6e7e8" d="M 337.875 306.046875 L 294.5625 331.050781 L 264.96875 313.964844 L 232.675781 332.613281 L 187.128906 306.3125 L 187.128906 220.6875 L 103.511719 268.964844 L 103.511719 365.730469 L 177.382812 323.082031 L 213.28125 343.808594 L 181.304688 362.269531 L 264.734375 410.441406 L 348.402344 362.136719 L 313.957031 342.246094 L 347.382812 322.945312 L 421.492188 365.730469 L 421.492188 269.234375 L 337.875 220.953125 L 337.875 306.046875 " fill-opacity="1" fill-rule="nonzero"/><path fill="#e6e7e8" d="M 147.378906 186.753906 L 181.167969 167.246094 L 255.273438 210.03125 L 255.273438 113.535156 L 171.65625 65.257812 L 171.65625 150.34375 L 127.984375 175.558594 L 93.8125 155.828125 L 10.144531 204.132812 L 93.582031 252.304688 L 177.246094 204 L 147.378906 186.753906 " fill-opacity="1" fill-rule="nonzero"/><g clip-path="url(#b5a359ac18)"><path fill="#e6e7e8" d="M 0.5 317.457031 L 84.117188 365.730469 L 84.117188 269.234375 L 0.5 220.957031 L 0.5 317.457031 " fill-opacity="1" fill-rule="nonzero"/></g><g clip-path="url(#e95b192f4e)"><path fill="#e6e7e8" d="M 440.886719 268.964844 L 440.886719 365.730469 L 524.507812 317.453125 L 524.507812 220.683594 L 440.886719 268.964844 " fill-opacity="1" fill-rule="nonzero"/></g></svg>