<svg xmlns="http://www.w3.org/2000/svg" xmlns:xlink="http://www.w3.org/1999/xlink" width="1080" zoomAndPan="magnify" viewBox="0 0 810 809.999993" height="1080" preserveAspectRatio="xMidYMid meet" version="1.0"><defs><clipPath id="36cde8ee2f"><path d="M 423.613281 585.304688 L 553.285156 585.304688 L 553.285156 809.792969 L 423.613281 809.792969 Z M 423.613281 585.304688 " clip-rule="nonzero"/></clipPath><clipPath id="664f8f17bb"><path d="M 264.511719 586 L 394 586 L 394 809.792969 L 264.511719 809.792969 Z M 264.511719 586 " clip-rule="nonzero"/></clipPath><clipPath id="ccb53ac241"><path d="M 680.570312 341.078125 L 810 341.078125 L 810 565.417969 L 680.570312 565.417969 Z M 680.570312 341.078125 " clip-rule="nonzero"/></clipPath></defs><path fill="#e6e7e8" d="M 537.789062 74.660156 L 408.820312 0.199219 L 279.484375 74.871094 L 408.457031 149.332031 L 537.789062 74.660156 " fill-opacity="1" fill-rule="nonzero"/><path fill="#e6e7e8" d="M 665.753906 240.878906 L 616.386719 269.382812 L 553.0625 232.820312 L 553.0625 100.457031 L 423.804688 175.082031 L 423.804688 324.667969 L 537.996094 258.738281 L 586.410156 286.691406 L 536.421875 315.550781 L 665.394531 390.011719 L 794.726562 315.339844 L 665.753906 240.878906 " fill-opacity="1" fill-rule="nonzero"/><g clip-path="url(#36cde8ee2f)"><path fill="#e6e7e8" d="M 423.804688 809.792969 L 553.0625 735.164062 L 553.0625 585.582031 L 423.804688 660.210938 L 423.804688 809.792969 " fill-opacity="1" fill-rule="nonzero"/></g><g clip-path="url(#664f8f17bb)"><path fill="#e6e7e8" d="M 264.574219 735.164062 L 393.828125 809.792969 L 393.828125 660.625 L 264.574219 586 L 264.574219 735.164062 " fill-opacity="1" fill-rule="nonzero"/></g><path fill="#e6e7e8" d="M 521.511719 473.085938 L 454.558594 511.734375 L 408.820312 485.324219 L 358.898438 514.148438 L 288.492188 473.5 L 288.492188 341.136719 L 159.234375 415.761719 L 159.234375 565.34375 L 273.429688 499.417969 L 328.921875 531.457031 L 279.484375 559.996094 L 408.457031 634.457031 L 537.789062 559.789062 L 484.539062 529.042969 L 536.210938 499.210938 L 650.769531 565.34375 L 650.769531 416.183594 L 521.511719 341.550781 L 521.511719 473.085938 " fill-opacity="1" fill-rule="nonzero"/><path fill="#e6e7e8" d="M 227.046875 288.6875 L 279.273438 258.527344 L 393.828125 324.664062 L 393.828125 175.503906 L 264.574219 100.875 L 264.574219 232.402344 L 197.070312 271.375 L 144.246094 240.878906 L 14.914062 315.550781 L 143.886719 390.011719 L 273.214844 315.34375 L 227.046875 288.6875 " fill-opacity="1" fill-rule="nonzero"/><path fill="#e6e7e8" d="M 0 490.722656 L 129.257812 565.34375 L 129.257812 416.179688 L 0 341.554688 L 0 490.722656 " fill-opacity="1" fill-rule="nonzero"/><g clip-path="url(#ccb53ac241)"><path fill="#e6e7e8" d="M 680.75 415.761719 L 680.75 565.34375 L 810.007812 490.71875 L 810.007812 341.132812 L 680.75 415.761719 " fill-opacity="1" fill-rule="nonzero"/></g></svg>